<svg width="342" height="513" viewBox="0 0 342 513" fill="none" xmlns="http://www.w3.org/2000/svg">
<rect width="342" height="513" fill="#F1F1F1"/>
<circle cx="171" cy="257" r="66" fill="#EF4444"/>
<path d="M142.25 291.5C142.25 291.5 136.5 291.5 136.5 285.75C136.5 280 142.25 262.75 171 262.75C199.75 262.75 205.5 280 205.5 285.75C205.5 291.5 199.75 291.5 199.75 291.5H142.25ZM171 257C175.575 257 179.963 255.183 183.198 251.948C186.433 248.713 188.25 244.325 188.25 239.75C188.25 235.175 186.433 230.787 183.198 227.552C179.963 224.317 175.575 222.5 171 222.5C166.425 222.5 162.037 224.317 158.802 227.552C155.567 230.787 153.75 235.175 153.75 239.75C153.75 244.325 155.567 248.713 158.802 251.948C162.037 255.183 166.425 257 171 257V257Z" fill="white"/>
</svg>
